<svg xmlns="http://www.w3.org/2000/svg" viewBox="0 0 805.39 366.67"><defs><style>.cls-1{fill:#ffbf00;}.cls-2{fill:#ee964b;}.cls-3{fill:none;stroke:#000;stroke-miterlimit:10;}</style></defs><g id="Illu"><path class="cls-1" d="M784.45-246.3c-128.1-63-277.68-33.42-372.71,63v0A150.31,150.31,0,0,1,239-154.69,150.24,150.24,0,0,0,37.86-86.24a150.25,150.25,0,0,0,68.45,201.15L471,317.72c9,5.62,18.43,10.87,28.18,15.67,160.08,78.79,353.71,12.88,432.5-147.19S944.53-167.51,784.45-246.3Z"/><path class="cls-2" d="M682.92-145.63a188.33,188.33,0,0,0-118.58,41.82v0a117.94,117.94,0,0,1-143.56,3.29v0A110.51,110.51,0,0,0,355.2-122a110.72,110.72,0,0,0-78.14,32.15h0A71.07,71.07,0,0,1,191.22-79h0A83.94,83.94,0,0,0,148.69-90.5,84.34,84.34,0,0,0,64.35-6.16a84.34,84.34,0,0,0,84.34,84.34,83.92,83.92,0,0,0,45.85-13.57v0a71,71,0,0,1,86.25,6.89h0a110.7,110.7,0,0,0,74.41,28.62,110.77,110.77,0,0,0,33.66-5.21A118,118,0,0,1,523,144.66v0a189,189,0,0,0,159.89,88.11C787.4,232.73,872.1,148,872.1,43.55S787.4-145.63,682.92-145.63Z"/></g><g id="Pfad"><path class="cls-3" d="M805.39-234.76q-11.65-7-24.08-13.15c-127.58-62.78-276.54-33.28-371.18,62.7v0a149.7,149.7,0,0,1-172,28.56A149.62,149.62,0,0,0,37.78-88.5,148.86,148.86,0,0,0,24.09,0"/></g></svg>